<svg id="Layer_1" data-name="Layer 1" xmlns="http://www.w3.org/2000/svg" viewBox="0 0 618.21 958.81"><defs><style>.cls-1,.cls-5{fill:#0874d9;}.cls-2{fill:#282828;}.cls-3{fill:#111;}.cls-4,.cls-5{font-size:180px;font-family:FontAwesome5ProSolid, "Font Awesome 5 Pro";}.cls-4,.cls-6{fill:#e5f1fb;}</style></defs><title>filled-color-h</title><path class="cls-1" d="M266.16,60.06A17.79,17.79,0,0,1,284,77.92v83.35a17.77,17.77,0,0,1-17.86,17.85H236.39v29.77a17.77,17.77,0,0,1-17.86,17.86H63.75a17.79,17.79,0,0,1-17.86-17.86V101.73A17.77,17.77,0,0,1,63.75,83.88H93.52V54.11a17.79,17.79,0,0,1,17.86-17.86h54.69a11.14,11.14,0,0,1,8.19,3.35l20.46,20.46ZM218.53,208.89V179.12H111.38a17.77,17.77,0,0,1-17.86-17.85V101.73H63.75V208.89Zm47.63-47.62V77.92h-74a11.1,11.1,0,0,1-8.19-3.35L163.47,54.11H111.38V161.27Z" transform="translate(-45.89 -36.25)"/><path class="cls-2" d="M396.57,192h-33L315.71,68.34h30l34.31,95.14,34.13-95.14h30Z" transform="translate(-45.89 -36.25)"/><path class="cls-2" d="M496.65,132Q507,118,513.27,112.3t12.27-5.66q7.15,0,9.87,4.89a12.31,12.31,0,0,1,1.45,6.16,9.53,9.53,0,0,1-3,6.79,9.7,9.7,0,0,1-7.25,3.08,11.82,11.82,0,0,1-5.94-2q-3.3-2-5-2c-2.23,0-4.37,1.14-6.39,3.43s-5.52,7.15-10.47,14.56l1.72,9.06q1.37,7,2.27,11.47t2,8.29a31,31,0,0,0,2.9,7.61,4.71,4.71,0,0,0,4.26,2.36q2.54,0,6.17-3.72a80.45,80.45,0,0,0,6.08-7.33l3.8,2.62a71.56,71.56,0,0,1-12.45,15.31q-7.65,7.24-15,7.24a12.35,12.35,0,0,1-10.14-5.08,25,25,0,0,1-4-7.44q-.9-2.44-2.49-8.67t-2-7.67l-1.27,2.17q-9,15.39-13.13,20-6.25,6.87-14.49,6.87a11.73,11.73,0,0,1-8.2-3.21,10.35,10.35,0,0,1-3.48-7.92,11.44,11.44,0,0,1,2.58-7.2,8.6,8.6,0,0,1,7.2-3.31,16.74,16.74,0,0,1,6.92,2q4.13,2,5.39,2a6.11,6.11,0,0,0,4.85-2.49,138.88,138.88,0,0,0,8-12.33l3.62-6q-.9-3.81-1.94-9.33t-2.13-11.34l-1.45-7.7q-1.55-8.34-4.89-11-1.91-1.55-6.25-1.54c-.3,0-1,0-2.17.13s-2.3.2-3.44.32V110.9q8.14-1,17.89-2.54t13-2.17A31.6,31.6,0,0,1,493,115a65.9,65.9,0,0,1,2.67,11Z" transform="translate(-45.89 -36.25)"/><path class="cls-2" d="M574.8,192H548.46V68.34H636V91.52H574.8v26.15h59.9v23.18H574.8Z" transform="translate(-45.89 -36.25)"/><path class="cls-3" d="M405.91,524.78h-35.6l-51.6-133.4h32.4l37,102.6,36.8-102.6h32.4Z" transform="translate(-45.89 -36.25)"/><path class="cls-3" d="M513.84,460Q525,444.9,531.76,438.79t13.22-6.1c5.15,0,8.69,1.76,10.65,5.28a13.2,13.2,0,0,1,1.56,6.64,10.3,10.3,0,0,1-3.23,7.32,10.48,10.48,0,0,1-7.82,3.32,12.67,12.67,0,0,1-6.4-2.15q-3.57-2.14-5.43-2.14-3.62,0-6.89,3.7t-11.29,15.7l1.86,9.77q1.47,7.53,2.44,12.37t2.15,8.94a34.35,34.35,0,0,0,3.13,8.21,5.09,5.09,0,0,0,4.6,2.54c1.83,0,4-1.34,6.65-4a87.92,87.92,0,0,0,6.56-7.91l4.1,2.83a77.23,77.23,0,0,1-13.43,16.51q-8.25,7.82-16.16,7.81a13.34,13.34,0,0,1-10.94-5.48,26.77,26.77,0,0,1-4.29-8q-1-2.64-2.69-9.34t-2.2-8.27l-1.36,2.34q-9.68,16.59-14.16,21.56-6.75,7.41-15.63,7.42a12.63,12.63,0,0,1-8.84-3.47,11.19,11.19,0,0,1-3.76-8.55,12.35,12.35,0,0,1,2.79-7.76,9.27,9.27,0,0,1,7.76-3.56,18,18,0,0,1,7.47,2.14c3,1.44,4.9,2.15,5.81,2.15a6.58,6.58,0,0,0,5.23-2.68,152.61,152.61,0,0,0,8.64-13.3l3.9-6.43q-1-4.11-2.1-10.07t-2.29-12.22l-1.56-8.31q-1.67-9-5.28-11.83c-1.36-1.11-3.61-1.66-6.73-1.66-.33,0-1.11.05-2.35.15s-2.47.21-3.71.34v-5.28q8.79-1.06,19.29-2.73t14-2.34a34.07,34.07,0,0,1,4.83,9.47,69.36,69.36,0,0,1,2.88,11.81Z" transform="translate(-45.89 -36.25)"/><path class="cls-3" d="M598.11,524.78h-28.4V391.38h94.4v25h-66v28.2h64.6v25h-64.6Z" transform="translate(-45.89 -36.25)"/><text class="cls-4" transform="translate(11.99 504.13)">folder</text><text class="cls-5" transform="translate(39.99 478.13)">folder</text><path class="cls-6" d="M410.62,745.5a16.8,16.8,0,0,1,16.88,16.88v78.74A16.8,16.8,0,0,1,410.62,858H264.38a16.8,16.8,0,0,1-16.88-16.88V739.88A16.8,16.8,0,0,1,264.38,723h56.24l22.5,22.5Z" transform="translate(-45.89 -36.25)"/><path class="cls-1" d="M438.67,719.44a16.76,16.76,0,0,1,16.83,16.83V814.8a16.75,16.75,0,0,1-16.83,16.82H292.83A16.75,16.75,0,0,1,276,814.8v-101A16.76,16.76,0,0,1,292.83,697h56.09l22.44,22.44Z" transform="translate(-45.89 -36.25)"/><path class="cls-3" d="M289.3,993H263.4l-37.55-97.06h23.58l26.92,74.65,26.77-74.65h23.57Z" transform="translate(-45.89 -36.25)"/><path class="cls-3" d="M367.82,945.88q8.1-11,13-15.44t9.62-4.44q5.61,0,7.74,3.83a9.6,9.6,0,0,1,1.14,4.84A7.47,7.47,0,0,1,397,940a7.64,7.64,0,0,1-5.69,2.42,9.3,9.3,0,0,1-4.66-1.56,8.85,8.85,0,0,0-3.94-1.57q-2.64,0-5,2.7a128.87,128.87,0,0,0-8.21,11.42l1.35,7.11q1.07,5.47,1.78,9t1.56,6.5a24.51,24.51,0,0,0,2.28,6,3.67,3.67,0,0,0,3.35,1.85c1.32,0,2.94-1,4.83-2.91a61.49,61.49,0,0,0,4.77-5.76l3,2.06a56.2,56.2,0,0,1-9.77,12c-4,3.79-7.92,5.69-11.76,5.69a9.7,9.7,0,0,1-8-4,19.81,19.81,0,0,1-3.12-5.84q-.72-1.92-2-6.8t-1.6-6l-1,1.7q-7,12.07-10.3,15.69-4.9,5.4-11.37,5.4a9.18,9.18,0,0,1-6.43-2.52,8.16,8.16,0,0,1-2.74-6.22,9,9,0,0,1,2-5.65,6.75,6.75,0,0,1,5.65-2.59,13.1,13.1,0,0,1,5.43,1.56,13.65,13.65,0,0,0,4.23,1.56,4.78,4.78,0,0,0,3.8-2,109.66,109.66,0,0,0,6.29-9.67l2.84-4.68c-.47-2-1-4.44-1.53-7.33s-1.1-5.85-1.67-8.89l-1.13-6q-1.21-6.54-3.84-8.6-1.5-1.21-4.9-1.21c-.24,0-.81,0-1.71.1l-2.7.25v-3.83q6.39-.78,14-2t10.19-1.71a24.76,24.76,0,0,1,3.52,6.89,51.61,51.61,0,0,1,2.1,8.59Z" transform="translate(-45.89 -36.25)"/><path class="cls-3" d="M429.13,993H408.47V895.94h68.68v18.19h-48v20.52h47v18.19h-47Z" transform="translate(-45.89 -36.25)"/></svg>