<svg xmlns="http://www.w3.org/2000/svg" viewBox="0 0 591.03 259.01"><defs><style>.cls-1{fill:#232323;}.cls-2,.cls-3{font-size:225.39px;font-family:FontAwesome5ProSolid, "Font Awesome 5 Pro";}.cls-2{fill:#9ef;}.cls-3{fill:#0874d9;stroke:#fff;stroke-miterlimit:10;stroke-width:6px;}</style></defs><title>iconAsset 3</title><g id="Layer_2" data-name="Layer 2"><g id="Layer_1-2" data-name="Layer 1"><path class="cls-1" d="M364.91,199.67H333.73L288.54,82.85h28.37l32.41,89.85,32.23-89.85h28.37Z"/><path class="cls-1" d="M459.43,143q9.75-13.25,15.69-18.59T486.71,119q6.75,0,9.32,4.61a11.6,11.6,0,0,1,1.36,5.82,9,9,0,0,1-2.82,6.41,9.21,9.21,0,0,1-6.85,2.91,11.21,11.21,0,0,1-5.61-1.88c-2.08-1.25-3.67-1.88-4.75-1.88q-3.17,0-6,3.24A157.36,157.36,0,0,0,461.43,152l1.63,8.56c.86,4.4,1.57,8,2.14,10.83s1.2,5.43,1.89,7.83a29.74,29.74,0,0,0,2.74,7.19,4.43,4.43,0,0,0,4,2.22q2.4,0,5.82-3.5a78.28,78.28,0,0,0,5.74-6.93l3.59,2.48a67.61,67.61,0,0,1-11.76,14.45Q470,202,463.1,202a11.66,11.66,0,0,1-9.58-4.8,23.61,23.61,0,0,1-3.76-7c-.57-1.55-1.36-4.28-2.35-8.19s-1.64-6.33-1.93-7.24l-1.2,2.05q-8.46,14.52-12.4,18.88-5.89,6.5-13.68,6.49a11,11,0,0,1-7.74-3,9.75,9.75,0,0,1-3.29-7.48,10.82,10.82,0,0,1,2.43-6.8,8.17,8.17,0,0,1,6.8-3.13A15.74,15.74,0,0,1,423,183.6c2.59,1.25,4.29,1.88,5.08,1.88a5.75,5.75,0,0,0,4.58-2.35,132,132,0,0,0,7.57-11.65l3.42-5.63q-.86-3.6-1.84-8.82t-2-10.7l-1.37-7.28q-1.45-7.87-4.62-10.36-1.78-1.45-5.9-1.45c-.28,0-1,0-2.05.12s-2.17.19-3.25.3V123q7.69-.93,16.89-2.39t12.28-2.05a29.72,29.72,0,0,1,4.23,8.29,60.35,60.35,0,0,1,2.53,10.34Z"/><path class="cls-1" d="M533.23,199.67H508.36V82.85H591v21.89h-57.8v24.7H589.8v21.89H533.23Z"/><text class="cls-2" transform="translate(0 230.4)">folder</text><text class="cls-3" transform="translate(22.72 208.36)">folder</text></g></g></svg>