<svg xmlns="http://www.w3.org/2000/svg" viewBox="0 0 677.5 228.02"><defs><style>.cls-1{fill:#1a1a1a;}.cls-2{fill:#9ef;stroke:#9ef;}.cls-2,.cls-3{stroke-miterlimit:10;}.cls-3{fill:#0874d9;stroke:#fff;stroke-width:9px;}</style></defs><title>iconAsset 1</title><g id="Layer_2" data-name="Layer 2"><g id="Layer_1-2" data-name="Layer 1"><path class="cls-1" d="M427.33,188.14H392.84l-50-129.25h31.39l35.85,99.41,35.65-99.41h31.39Z"/><path class="cls-1" d="M531.91,125.4q10.79-14.66,17.36-20.57t12.81-5.91c5,0,8.42,1.7,10.32,5.11a12.85,12.85,0,0,1,1.51,6.43,10,10,0,0,1-3.13,7.1,10.18,10.18,0,0,1-7.57,3.22,12.38,12.38,0,0,1-6.21-2.09c-2.3-1.38-4.06-2.08-5.26-2.08-2.33,0-4.56,1.2-6.67,3.59s-5.77,7.47-10.94,15.21l1.8,9.47q1.41,7.29,2.37,12t2.08,8.66a33,33,0,0,0,3,8,4.93,4.93,0,0,0,4.46,2.46c1.77,0,3.92-1.3,6.44-3.88a84.41,84.41,0,0,0,6.35-7.67l4,2.75a75.26,75.26,0,0,1-13,16q-8,7.56-15.66,7.57a12.91,12.91,0,0,1-10.6-5.31,26.17,26.17,0,0,1-4.16-7.78q-.94-2.55-2.6-9.06t-2.13-8l-1.33,2.27q-9.36,16.06-13.72,20.89-6.53,7.19-15.14,7.19a12.22,12.22,0,0,1-8.56-3.36,10.81,10.81,0,0,1-3.64-8.28,12,12,0,0,1,2.69-7.52,9,9,0,0,1,7.53-3.46,17.61,17.61,0,0,1,7.24,2.08c2.86,1.39,4.74,2.09,5.62,2.09a6.39,6.39,0,0,0,5.07-2.6A146.23,146.23,0,0,0,510.61,157l3.79-6.23c-.64-2.65-1.31-5.9-2-9.75s-1.47-7.8-2.22-11.84l-1.52-8.06q-1.61-8.71-5.11-11.46C502.19,108.54,500,108,497,108c-.32,0-1.08,0-2.28.14l-3.59.33v-5.1q8.52-1.05,18.69-2.65t13.58-2.27a33,33,0,0,1,4.68,9.17,67.37,67.37,0,0,1,2.8,11.44Z"/><path class="cls-1" d="M613.55,188.14H586V58.89H677.5V83.12h-64v27.32h62.59v24.22H613.55Z"/><path class="cls-2" d="M227.79,70.76a23.42,23.42,0,0,1,23.52,23.52V204a23.42,23.42,0,0,1-23.52,23.52H24a22.67,22.67,0,0,1-16.65-6.86A22.68,22.68,0,0,1,.5,204V62.92A22.67,22.67,0,0,1,7.36,46.27,22.67,22.67,0,0,1,24,39.41h78.38l31.35,31.35Z"/><path class="cls-3" d="M265.49,35.85A23.41,23.41,0,0,1,289,59.36V169.09a23.39,23.39,0,0,1-23.51,23.51H61.71A23.41,23.41,0,0,1,38.2,169.09V28a22.63,22.63,0,0,1,6.86-16.65A22.67,22.67,0,0,1,61.71,4.5h78.38l31.35,31.35Z"/></g></g></svg>