<svg xmlns="http://www.w3.org/2000/svg" width="321.791" height="330.133" viewBox="0 0 321.791 330.133">
  <g id="undraw_folder_39kl" transform="translate(-66.111)">
    <path id="Path_523" data-name="Path 523" d="M971.364,477.085c-.063,4.938-.289,10.471-.8,16.3l14.225-17.737.1.277a44.365,44.365,0,0,0-5.117-11.344l.113.261Z" transform="translate(-621.977 -293.021)" fill="#30b34e"/>
    <path id="Path_524" data-name="Path 524" d="M971.5,464.34l8.257-11.859a23.373,23.373,0,0,0-8.464-8.034c-.169-.088-.338-.17-.508-.251C970.912,445.533,971.6,453.384,971.5,464.34Z" transform="translate(-622.105 -281.143)" fill="#30b34e"/>
    <path id="Path_525" data-name="Path 525" d="M978.65,566.319q.524-3.1.814-6.19l-21.451,16.848-.029-.149q-.484,1.823-1.01,3.583l21.626-14.42Z" transform="translate(-614.057 -348.697)" fill="#30b34e"/>
    <path id="Path_526" data-name="Path 526" d="M965.328,526.216l19.2-17.793.075.308a69.751,69.751,0,0,0-2.674-16.246l-14.5,18.075Q966.681,518.752,965.328,526.216Z" transform="translate(-618.924 -309.28)" fill="#30b34e"/>
    <path id="Path_527" data-name="Path 527" d="M926.532,498.992l-25.681-25.521.111-.312a58.239,58.239,0,0,0-5.2,10.524L924.988,511.4C925.684,507.068,926.181,502.884,926.532,498.992Z" transform="translate(-578.389 -298.02)" fill="#30b34e"/>
    <path id="Path_528" data-name="Path 528" d="M922.247,530.4q.295-1.587.553-3.154l-29.332-27.819.108-.314q-.728,1.942-1.366,4.008l.106-.315Z" transform="translate(-576.319 -313.144)" fill="#30b34e"/>
    <path id="Path_529" data-name="Path 529" d="M959.831,559.894,981.1,543.187l.062.319a83.3,83.3,0,0,0,.251-11.225l-19.458,18.034Q961.027,555.287,959.831,559.894Z" transform="translate(-615.721 -332.469)" fill="#30b34e"/>
    <path id="Path_530" data-name="Path 530" d="M886.375,556.8l24.053,27.885a100.188,100.188,0,0,0,4.226-11.237l-28.948-27.084a80.568,80.568,0,0,0,.533,10.773Z" transform="translate(-572.522 -340.676)" fill="#30b34e"/>
    <path id="Path_531" data-name="Path 531" d="M948.762,442.048l.2-.1c-5.049-2.333-10.336-1.746-15.264,1.2l15.8,19.048C949.6,450.342,948.774,442.165,948.762,442.048Z" transform="translate(-600.49 -278.995)" fill="#30b34e"/>
    <path id="Path_532" data-name="Path 532" d="M950.171,591.618a99.524,99.524,0,0,1-3.821,10.134l21.823-12.941.041.322a39.455,39.455,0,0,0,3.416-9.355q.427-1.917.76-3.84l-21.883,14.592C950.4,590.894,950.285,591.259,950.171,591.618Z" transform="translate(-607.866 -357.909)" fill="#30b34e"/>
    <path id="Path_533" data-name="Path 533" d="M934.872,466.968l-16.161-19.485.124-.3a33.588,33.588,0,0,0-10.215,10.582l25.472,25.313C934.589,477.317,934.81,471.849,934.872,466.968Z" transform="translate(-585.88 -282.885)" fill="#30b34e"/>
    <path id="Path_534" data-name="Path 534" d="M914.907,551.293a135.188,135.188,0,0,0,3.456-14.137l-30-27.662q-.852,2.8-1.526,5.818a48.446,48.446,0,0,0-1.059,8.755l29.114,27.239Z" transform="translate(-572.568 -319.192)" fill="#30b34e"/>
    <path id="Path_535" data-name="Path 535" d="M1014.277,675.419c-3.2,3.763-6.9,7.88-11.01,12.046l22.269-4.588-.1.277a44.367,44.367,0,0,0,3.294-12l-.08.273Z" transform="translate(-641.031 -413.39)" fill="#30b34e"/>
    <path id="Path_536" data-name="Path 536" d="M1043.521,642.036c-.074-.175-.152-.347-.231-.517-.755,1.11-5.233,7.6-12.3,15.971l13.923-3.867A23.373,23.373,0,0,0,1043.521,642.036Z" transform="translate(-657.187 -396.122)" fill="#30b34e"/>
    <path id="Path_537" data-name="Path 537" d="M947.944,754.365q-1.535,1.1-3.063,2.116l25.853,2.687-.17.284q2.382-2.055,4.575-4.248l-27.268-.706Z" transform="translate(-607.009 -461.877)" fill="#30b34e"/>
    <path id="Path_538" data-name="Path 538" d="M973.9,715.992l26.136-1.459-.138.285a69.748,69.748,0,0,0,8.3-14.218l-22.693,4.675Q979.707,711.107,973.9,715.992Z" transform="translate(-623.921 -430.548)" fill="#30b34e"/>
    <path id="Path_539" data-name="Path 539" d="M953.638,742.865l27.04.7-.156.285a83.288,83.288,0,0,0,7.353-8.485l-26.489,1.479Q957.5,740.08,953.638,742.865Z" transform="translate(-612.113 -450.806)" fill="#30b34e"/>
    <path id="Path_540" data-name="Path 540" d="M834.315,662.337c.18-.2.362-.413.549-.63a69.312,69.312,0,0,0,15.71-5.5l-.39-19.395q.284-.76.546-1.531l.415,20.647a100.175,100.175,0,0,0,10.422-5.96l-4.585-35.908.569-.342,4.579,35.862.025,0a135.217,135.217,0,0,0,11.678-8.684l-4.773-35.318q.276-.228.553-.46l4.774,35.319q1.239-1.034,2.438-2.076L872.5,602.584q.275-.253.548-.51l4.326,35.81c3.3-2.893,6.35-5.8,9.1-8.572l-3.5-36.035.285-.169c-.986.319-1.984.682-2.991,1.078a51.033,51.033,0,0,0,4.78-7.377L863.02,599.872a76.586,76.586,0,0,1-4.774,8.9c-.391.414-.781.835-1.165,1.266l.056.438q-.256.382-.516.757l-.074-.583c-.219.253-.436.51-.653.768a72.135,72.135,0,0,0,6.726-11.772l-23.877-27.681c.3,2.572.7,5.155,1.174,7.712a43.807,43.807,0,0,0-7.963-8.636l.188.213-4.322,14.278c1.466,4.716,2.961,10.048,4.281,15.748l7.934-20.971q.09.476.184.95l-7.914,20.917q1.819,8.023,2.839,15.54l9.925-17.779q.115.365.23.724l-10.032,17.971q.652,5.016.938,9.768l12.326-18.379q.126.34.249.667l-12.457,18.573-.073-.133q.1,1.883.147,3.72l14.073-17.82q.14.347.261.64l-14.316,18.128c.006.38.014.761.017,1.138a99.494,99.494,0,0,1-.5,10.818L837.3,644.2q-.363.88-.707,1.735l-.777.884c-.062.535-.13,1.066-.2,1.593q-.4,1.026-.765,2,.3-1.834.515-3.69L804.1,627.775c9.006,19.615,24.882,37.85,25.9,39.007q1.024-2.211,1.848-4.524c.187-.029.373-.06.559-.09-.064.185-.127.371-.193.555-.1.016-.2.034-.292.05l.254.055q-.586,1.62-1.252,3.165c.625-.631,1.563-1.607,2.7-2.87,7.182,1.4,26.448,4.15,42.42-2.493l-25.3-3.99A70,70,0,0,1,834.315,662.337ZM850.041,629.7l.564-.641.018.911-.564.641Z" transform="translate(-524.976 -355.053)" fill="#30b34e"/>
    <path id="Path_541" data-name="Path 541" d="M1042.521,628.653l.215.047c-2.4-5.018-6.847-7.937-12.523-8.811l.019,24.747C1037.874,635.574,1042.455,628.751,1042.521,628.653Z" transform="translate(-656.732 -383.518)" fill="#30b34e"/>
    <path id="Path_542" data-name="Path 542" d="M927.567,761.308a99.536,99.536,0,0,1-9.406,5.368l25.062,3.952-.174.275a39.461,39.461,0,0,0,8.6-5.026q1.552-1.2,3.034-2.473l-26.161-2.719C928.2,760.894,927.884,761.1,927.567,761.308Z" transform="translate(-591.44 -465.56)" fill="#30b34e"/>
    <path id="Path_543" data-name="Path 543" d="M997.975,656.828c4.059-4.122,7.717-8.192,10.878-11.911l-.019-25.315.285-.151a33.587,33.587,0,0,0-14.617,1.635Z" transform="translate(-635.924 -383.125)" fill="#30b34e"/>
    <path id="Path_544" data-name="Path 544" d="M854.869,563.509a23.372,23.372,0,0,0-10.533-5.025c-.188-.031-.374-.057-.561-.082.533,1.232,3.615,8.486,6.906,18.937Z" transform="translate(-548.096 -347.691)" fill="#30b34e"/>
    <path id="Path_545" data-name="Path 545" d="M823.169,621.95l-32.312-16.333.01-.331a58.237,58.237,0,0,0-1.691,11.616l36.361,17.326C824.859,629.893,824.038,625.76,823.169,621.95Z" transform="translate(-516.281 -375.009)" fill="#30b34e"/>
    <path id="Path_546" data-name="Path 546" d="M825.53,651.63l-36.495-17.39.006-.332q-.092,2.071-.06,4.234l0-.332L825.979,654.8Q825.768,653.2,825.53,651.63Z" transform="translate(-516.162 -391.687)" fill="#30b34e"/>
    <path id="Path_547" data-name="Path 547" d="M830.361,698.67l-35.9-16.81a80.578,80.578,0,0,0,3.837,10.081l.025-.362,31.494,19.084a100.189,100.189,0,0,0,.546-11.993Z" transform="translate(-519.359 -419.629)" fill="#30b34e"/>
    <path id="Path_548" data-name="Path 548" d="M823.3,558.325l.154-.156c-5.523-.659-10.369,1.534-14.146,5.861l20.913,13.232C826.662,565.955,823.352,558.433,823.3,558.325Z" transform="translate(-528.015 -347.487)" fill="#30b34e"/>
    <path id="Path_549" data-name="Path 549" d="M821.226,586.752l-21.392-13.535.026-.322a33.588,33.588,0,0,0-6.444,13.221l32.049,16.2C824.156,596.681,822.676,591.413,821.226,586.752Z" transform="translate(-518.751 -356.135)" fill="#30b34e"/>
    <path id="Path_550" data-name="Path 550" d="M827.171,676.411a135.206,135.206,0,0,0-1.083-14.512L789,644.866q.056,2.93.347,6.005a48.442,48.442,0,0,0,1.7,8.654l36.107,16.906Z" transform="translate(-516.18 -398.072)" fill="#30b34e"/>
    <path id="Path_551" data-name="Path 551" d="M655.53,328.358,547.821,314.781c-4.882-40.608,2.494-80.252,15.086-119.677l107.709,13.577C654.362,247.359,649.592,287.279,655.53,328.358Z" transform="translate(-374.759 -135.998)" fill="#f2f2f2"/>
    <rect id="Rectangle_420" data-name="Rectangle 420" width="66.343" height="7.128" transform="matrix(0.992, 0.125, -0.125, 0.992, 203.197, 73.437)" fill="#0874d9"/>
    <rect id="Rectangle_421" data-name="Rectangle 421" width="89.92" height="3.564" transform="matrix(0.992, 0.125, -0.125, 0.992, 187.981, 88.927)" fill="#0874d9" opacity="0.3"/>
    <rect id="Rectangle_422" data-name="Rectangle 422" width="89.92" height="3.564" transform="matrix(0.992, 0.125, -0.125, 0.992, 186.541, 100.351)" fill="#0874d9" opacity="0.3"/>
    <rect id="Rectangle_423" data-name="Rectangle 423" width="89.92" height="3.564" transform="matrix(0.992, 0.125, -0.125, 0.992, 185.101, 111.774)" fill="#0874d9" opacity="0.3"/>
    <rect id="Rectangle_424" data-name="Rectangle 424" width="89.92" height="3.564" transform="matrix(0.992, 0.125, -0.125, 0.992, 183.661, 123.198)" fill="#0874d9" opacity="0.3"/>
    <rect id="Rectangle_425" data-name="Rectangle 425" width="89.92" height="3.564" transform="matrix(0.992, 0.125, -0.125, 0.992, 182.221, 134.622)" fill="#0874d9" opacity="0.3"/>
    <rect id="Rectangle_426" data-name="Rectangle 426" width="89.92" height="3.564" transform="matrix(0.992, 0.125, -0.125, 0.992, 180.781, 146.046)" fill="#0874d9" opacity="0.3"/>
    <rect id="Rectangle_427" data-name="Rectangle 427" width="89.92" height="3.564" transform="matrix(0.992, 0.125, -0.125, 0.992, 179.341, 157.469)" fill="#0874d9" opacity="0.3"/>
    <path id="Path_552" data-name="Path 552" d="M545.115,205.82,444.347,165.43c5.552-40.522,22.719-77.009,44.877-111.965l100.768,40.39C564.482,127.161,549.765,164.575,545.115,205.82Z" transform="translate(-315.35 -53.465)" fill="#e6e6e6"/>
    <rect id="Rectangle_428" data-name="Rectangle 428" width="66.343" height="7.128" transform="translate(184.808 17.672) rotate(21.841)" fill="#0874d9"/>
    <rect id="Rectangle_429" data-name="Rectangle 429" width="89.92" height="3.564" transform="translate(166.168 28.808) rotate(21.841)" fill="#0874d9" opacity="0.3"/>
    <rect id="Rectangle_430" data-name="Rectangle 430" width="89.92" height="3.564" transform="translate(161.884 39.495) rotate(21.841)" fill="#0874d9" opacity="0.3"/>
    <rect id="Rectangle_431" data-name="Rectangle 431" width="89.92" height="3.564" transform="translate(157.6 50.183) rotate(21.841)" fill="#0874d9" opacity="0.3"/>
    <rect id="Rectangle_432" data-name="Rectangle 432" width="89.92" height="3.564" transform="translate(153.317 60.871) rotate(21.841)" fill="#0874d9" opacity="0.3"/>
    <rect id="Rectangle_433" data-name="Rectangle 433" width="89.92" height="3.564" transform="translate(149.033 71.558) rotate(21.841)" fill="#0874d9" opacity="0.3"/>
    <rect id="Rectangle_434" data-name="Rectangle 434" width="89.92" height="3.564" transform="translate(144.749 82.246) rotate(21.841)" fill="#0874d9" opacity="0.3"/>
    <rect id="Rectangle_435" data-name="Rectangle 435" width="89.92" height="3.564" transform="translate(140.465 92.934) rotate(21.841)" fill="#0874d9" opacity="0.3"/>
    <path id="Path_553" data-name="Path 553" d="M465.319,273.436H356.758c-9.922-39.679-7.563-79.934,0-120.624H465.319C454.031,193.219,454.29,233.423,465.319,273.436Z" transform="translate(-260.475 -111.354)" fill="#f2f2f2"/>
    <rect id="Rectangle_436" data-name="Rectangle 436" width="66.343" height="7.128" transform="translate(113.006 53.795)" fill="#0874d9"/>
    <rect id="Rectangle_437" data-name="Rectangle 437" width="89.92" height="3.564" transform="translate(99.847 71.066)" fill="#0874d9" opacity="0.3"/>
    <rect id="Rectangle_438" data-name="Rectangle 438" width="89.92" height="3.564" transform="translate(99.847 82.58)" fill="#0874d9" opacity="0.3"/>
    <rect id="Rectangle_439" data-name="Rectangle 439" width="89.92" height="3.564" transform="translate(99.847 94.094)" fill="#0874d9" opacity="0.3"/>
    <rect id="Rectangle_440" data-name="Rectangle 440" width="89.92" height="3.564" transform="translate(99.847 105.608)" fill="#0874d9" opacity="0.3"/>
    <rect id="Rectangle_441" data-name="Rectangle 441" width="89.92" height="3.564" transform="translate(99.847 117.122)" fill="#0874d9" opacity="0.3"/>
    <rect id="Rectangle_442" data-name="Rectangle 442" width="89.92" height="3.564" transform="translate(99.847 128.636)" fill="#0874d9" opacity="0.3"/>
    <rect id="Rectangle_443" data-name="Rectangle 443" width="89.92" height="3.564" transform="translate(99.847 140.15)" fill="#0874d9" opacity="0.3"/>
    <path id="Path_554" data-name="Path 554" d="M359.209,340.572l-37.4-29.077a4.27,4.27,0,0,0-3.7-2.141H297.921a4.269,4.269,0,0,0-4.269,4.269V491.788A13.848,13.848,0,0,0,307.5,505.636H514.717a13.848,13.848,0,0,0,13.848-13.848V353.159a12.587,12.587,0,0,0-12.587-12.587Z" transform="translate(-227.541 -202.571)" fill="#343434"/>
    <rect id="Rectangle_444" data-name="Rectangle 444" width="37.586" height="13.155" transform="translate(256.391 179.319)" fill="#0874d9"/>
    <path id="Path_555" data-name="Path 555" d="M135.228,783.565s141.956-98.311,313.375,0" transform="translate(-69.117 -453.431)" fill="#f2f2f2"/>
  </g>
</svg>
